# xmcd
#
# Track frame offsets: 
#        150
#        18942
#        40844
#        57955
#        79802
#        103129
#        128256
#        149373
#        164489
#        196035
#
# Disc length: 2903 seconds
#
# Revision: 0
# Processed by: cddbd v1.5.2PL0 Copyright (c) Steve Scherf et al.
# Submitted via: ExactAudioCopy v1.0b3
#
DISCID=7b0b550a
DTITLE=Chillent - Jewish Soul Stew
DYEAR=2016
DGENRE=Blues
TTITLE0=Save the Schmaltz
TTITLE1=Doina Li
TTITLE2=Catch Me If I Fall
TTITLE3=Emergence
TTITLE4=The Wedding Chicken
TTITLE5=Universe in Miniature
TTITLE6=Senor Solomon
TTITLE7=Narrow Bridge
TTITLE8=Al Tira
TTITLE9=Funkbrengen
EXTD=
EXTT0=
EXTT1=
EXTT2=
EXTT3=
EXTT4=
EXTT5=
EXTT6=
EXTT7=
EXTT8=
EXTT9=
PLAYORDER=
